REM DIRINDEX 1\6,1\2\7,1\2\8,1\2\9,1\3\10,1\3\11,1\4\12,1\4\13,1\4\14,1\5\15,1\5\16,1\5\17
REM DIRNAME folder01,folder02,folder03,folder04,folder05,folder06,folder07,folder08,folder09,folder10,folder11,folder12,folder13,folder14,folder15,folder16,folder17
TITLE ""
FILE "3Q_t2_0094-0109.mp3" MP3
  TRACK 01 AUDIO
    TITLE "7:cjc041_3694"
    INDEX 01 00:00:00
  TRACK 02 AUDIO
    TITLE "0:"
    INDEX 01 00:01:24
  TRACK 03 AUDIO
    TITLE "8:cjc041_3695"
    INDEX 01 00:02:04
  TRACK 04 AUDIO
    TITLE "0:"
    INDEX 01 00:03:55
  TRACK 05 AUDIO
    TITLE "9:cjc041_3696"
    INDEX 01 00:04:36
  TRACK 06 AUDIO
    TITLE "0:"
    INDEX 01 00:05:69
  TRACK 07 AUDIO
    TITLE "7:cjc041_3697"
    INDEX 01 00:07:51
  TRACK 08 AUDIO
    TITLE "0:"
    INDEX 01 00:08:56
  TRACK 09 AUDIO
    TITLE "8:cjc041_3698"
    INDEX 01 00:09:30
  TRACK 10 AUDIO
    TITLE "0:"
    INDEX 01 00:10:21
  TRACK 11 AUDIO
    TITLE "9:cjc041_3699"
    INDEX 01 00:10:72
  TRACK 12 AUDIO
    TITLE "0:"
    INDEX 01 00:12:03
  TRACK 13 AUDIO
    TITLE "7:cjc041_3700"
    INDEX 01 00:13:53
  TRACK 14 AUDIO
    TITLE "0:"
    INDEX 01 00:14:64
  TRACK 15 AUDIO
    TITLE "8:cjc041_3701"
    INDEX 01 00:15:42
  TRACK 16 AUDIO
    TITLE "0:"
    INDEX 01 00:16:36
  TRACK 17 AUDIO
    TITLE "9:cjc041_3702"
    INDEX 01 00:17:16
  TRACK 18 AUDIO
    TITLE "0:"
    INDEX 01 00:18:31
  TRACK 19 AUDIO
    TITLE "7:cjc041_3703"
    INDEX 01 00:20:12
  TRACK 20 AUDIO
    TITLE "0:"
    INDEX 01 00:21:23
  TRACK 21 AUDIO
    TITLE "8:cjc041_3704"
    INDEX 01 00:22:01
  TRACK 22 AUDIO
    TITLE "0:"
    INDEX 01 00:23:36
  TRACK 23 AUDIO
    TITLE "9:cjc041_3705"
    INDEX 01 00:24:20
  TRACK 24 AUDIO
    TITLE "0:"
    INDEX 01 00:25:29
  TRACK 25 AUDIO
    TITLE "7:cjc041_3706"
    INDEX 01 00:27:12
  TRACK 26 AUDIO
    TITLE "0:"
    INDEX 01 00:28:21
  TRACK 27 AUDIO
    TITLE "8:cjc041_3707"
    INDEX 01 00:29:03
  TRACK 28 AUDIO
    TITLE "0:"
    INDEX 01 00:29:70
  TRACK 29 AUDIO
    TITLE "9:cjc041_3708"
    INDEX 01 00:30:50
  TRACK 30 AUDIO
    TITLE "0:"
    INDEX 01 00:31:61
  TRACK 31 AUDIO
    TITLE "7:cjc041_3709"
    INDEX 01 00:33:40
  TRACK 32 AUDIO
    TITLE "0:"
    INDEX 01 00:34:69
  TRACK 33 AUDIO
    TITLE "8:cjc041_3710"
    INDEX 01 00:35:47
  TRACK 34 AUDIO
    TITLE "0:"
    INDEX 01 00:36:50
  TRACK 35 AUDIO
    TITLE "9:cjc041_3711"
    INDEX 01 00:37:28
  TRACK 36 AUDIO
    TITLE "0:"
    INDEX 01 00:38:63
  TRACK 37 AUDIO
    TITLE "7:cjc041_3712"
    INDEX 01 00:40:44
  TRACK 38 AUDIO
    TITLE "0:"
    INDEX 01 00:42:00
  TRACK 39 AUDIO
    TITLE "8:cjc041_3713"
    INDEX 01 00:42:55
  TRACK 40 AUDIO
    TITLE "0:"
    INDEX 01 00:44:61
  TRACK 41 AUDIO
    TITLE "9:cjc041_3714"
    INDEX 01 00:45:41
  TRACK 42 AUDIO
    TITLE "0:"
    INDEX 01 00:47:01
  TRACK 43 AUDIO
    TITLE "7:cjc041_3715"
    INDEX 01 00:48:55
  TRACK 44 AUDIO
    TITLE "0:"
    INDEX 01 00:49:74
  TRACK 45 AUDIO
    TITLE "8:cjc041_3716"
    INDEX 01 00:50:52
  TRACK 46 AUDIO
    TITLE "0:"
    INDEX 01 00:52:47
  TRACK 47 AUDIO
    TITLE "9:cjc041_3717"
    INDEX 01 00:53:25
  TRACK 48 AUDIO
    TITLE "0:"
    INDEX 01 00:54:42
  TRACK 49 AUDIO
    TITLE "7:cjc041_3718"
    INDEX 01 00:56:25
  TRACK 50 AUDIO
    TITLE "0:"
    INDEX 01 00:57:68
  TRACK 51 AUDIO
    TITLE "8:cjc041_3719"
    INDEX 01 00:58:50
  TRACK 52 AUDIO
    TITLE "0:"
    INDEX 01 01:00:02
  TRACK 53 AUDIO
    TITLE "9:cjc041_3720"
    INDEX 01 01:00:62
  TRACK 54 AUDIO
    TITLE "0:"
    INDEX 01 01:02:30
  TRACK 55 AUDIO
    TITLE "7:cjc041_3721"
    INDEX 01 01:04:09
  TRACK 56 AUDIO
    TITLE "0:"
    INDEX 01 01:05:36
  TRACK 57 AUDIO
    TITLE "8:cjc041_3722"
    INDEX 01 01:06:18
  TRACK 58 AUDIO
    TITLE "0:"
    INDEX 01 01:07:25
  TRACK 59 AUDIO
    TITLE "9:cjc041_3723"
    INDEX 01 01:08:03
  TRACK 60 AUDIO
    TITLE "0:"
    INDEX 01 01:09:32
  TRACK 61 AUDIO
    TITLE "7:cjc041_3724"
    INDEX 01 01:11:13
  TRACK 62 AUDIO
    TITLE "0:"
    INDEX 01 01:12:28
  TRACK 63 AUDIO
    TITLE "8:cjc041_3725"
    INDEX 01 01:13:08
  TRACK 64 AUDIO
    TITLE "0:"
    INDEX 01 01:15:25
  TRACK 65 AUDIO
    TITLE "9:cjc041_3726"
    INDEX 01 01:16:01
  TRACK 66 AUDIO
    TITLE "0:"
    INDEX 01 01:17:14
  TRACK 67 AUDIO
    TITLE "7:cjc041_3727"
    INDEX 01 01:18:74
  TRACK 68 AUDIO
    TITLE "0:"
    INDEX 01 01:20:14
  TRACK 69 AUDIO
    TITLE "8:cjc041_3728"
    INDEX 01 01:20:67
  TRACK 70 AUDIO
    TITLE "0:"
    INDEX 01 01:22:05
  TRACK 71 AUDIO
    TITLE "9:cjc041_3729"
    INDEX 01 01:22:58
  TRACK 72 AUDIO
    TITLE "0:"
    INDEX 01 01:24:00
  TRACK 73 AUDIO
    TITLE "7:cjc041_3730"
    INDEX 01 01:25:57
  TRACK 74 AUDIO
    TITLE "0:"
    INDEX 01 01:26:66
  TRACK 75 AUDIO
    TITLE "8:cjc041_3731"
    INDEX 01 01:27:42
  TRACK 76 AUDIO
    TITLE "0:"
    INDEX 01 01:28:61
  TRACK 77 AUDIO
    TITLE "9:cjc041_3732"
    INDEX 01 01:29:46
  TRACK 78 AUDIO
    TITLE "0:"
    INDEX 01 01:30:54
  TRACK 79 AUDIO
    TITLE "7:cjc041_3733"
    INDEX 01 01:32:35
  TRACK 80 AUDIO
    TITLE "0:"
    INDEX 01 01:33:56
  TRACK 81 AUDIO
    TITLE "8:cjc041_3734"
    INDEX 01 01:34:34
  TRACK 82 AUDIO
    TITLE "0:"
    INDEX 01 01:35:53
  TRACK 83 AUDIO
    TITLE "9:cjc041_3735"
    INDEX 01 01:36:31
  TRACK 84 AUDIO
    TITLE "0:"
    INDEX 01 01:37:54
  TRACK 85 AUDIO
    TITLE "7:cjc041_3736"
    INDEX 01 01:39:35
  TRACK 86 AUDIO
    TITLE "0:"
    INDEX 01 01:40:44
  TRACK 87 AUDIO
    TITLE "8:cjc041_3737"
    INDEX 01 01:41:24
  TRACK 88 AUDIO
    TITLE "0:"
    INDEX 01 01:42:28
  TRACK 89 AUDIO
    TITLE "9:cjc041_3738"
    INDEX 01 01:43:03
  TRACK 90 AUDIO
    TITLE "0:"
    INDEX 01 01:44:17
  TRACK 91 AUDIO
    TITLE "7:cjc041_3739"
    INDEX 01 01:46:00
  TRACK 92 AUDIO
    TITLE "0:"
    INDEX 01 01:47:13
  TRACK 93 AUDIO
    TITLE "8:cjc041_3740"
    INDEX 01 01:47:72
  TRACK 94 AUDIO
    TITLE "0:"
    INDEX 01 01:49:67
  TRACK 95 AUDIO
    TITLE "9:cjc041_3741"
    INDEX 01 01:50:45
  TRACK 96 AUDIO
    TITLE "0:"
    INDEX 01 01:51:62
